<svg version="1.1" id="Layer_1" xmlns="http://www.w3.org/2000/svg" xmlns:xlink="http://www.w3.org/1999/xlink" x="0px" y="0px"
	 width="100%" viewBox="0 0 571 327" enable-background="new 0 0 571 327" xml:space="preserve">
<path fill="#D5E6F3" opacity="1.000000" stroke="none" 
	d="
M1.000000,151.000000 
	C1.000000,101.066162 1.000000,51.132320 1.000000,1.000000 
	C61.020748,1.000000 121.041718,1.000000 181.574387,1.355655 
	C184.970413,5.324713 187.900589,8.903118 190.704788,12.577681 
	C191.354172,13.428607 191.930618,14.608652 191.928574,15.636033 
	C191.919601,20.142750 192.827103,23.436472 197.730042,21.622219 
	C198.791656,25.153999 200.620880,28.304272 200.456741,31.347017 
	C200.175369,36.563004 201.246231,41.010303 204.064758,45.313580 
	C205.577286,47.622849 207.755249,49.942608 205.366211,53.305397 
	C204.952698,53.887455 207.470337,56.551895 208.479279,58.585674 
	C201.859833,69.760521 201.574921,80.776985 208.373825,91.412918 
	C211.094894,95.669678 209.653107,98.101181 206.629196,100.734474 
	C205.667053,101.572357 204.633942,102.328758 203.140457,103.513359 
	C204.863495,103.814644 205.933380,104.001717 206.992783,104.560242 
	C205.194931,106.550262 203.407578,108.168846 201.343109,110.038361 
	C201.461624,110.387222 201.539337,111.292038 202.009308,111.887009 
	C204.601166,115.168335 204.567490,117.454323 199.974060,118.643585 
	C199.031937,118.887497 197.970078,120.035446 197.628571,121.001778 
	C195.934998,125.793854 194.903625,130.867050 192.792282,135.451233 
	C190.653564,140.094879 187.819321,144.501648 184.758118,148.616714 
	C180.521393,154.311966 173.403214,157.221100 169.870499,163.815170 
	C168.798370,165.816376 165.729828,166.687347 164.442444,168.645782 
	C161.124725,173.692825 158.291565,179.058426 155.210785,184.390289 
	C152.429260,183.110733 150.847382,182.050568 149.119629,181.690628 
	C147.668777,181.388367 145.686554,181.375793 144.564880,182.145828 
	C139.698639,185.486557 135.061523,189.161041 130.147400,192.860016 
	C127.454674,191.429855 124.495056,189.239029 121.641724,193.141983 
	C121.357498,193.530777 120.133621,193.157532 119.370125,193.284256 
	C116.317955,193.790771 113.282280,194.398148 110.227638,194.888000 
	C105.605820,195.629196 100.968262,196.899338 96.346512,196.860428 
	C90.095055,196.807816 83.863235,195.571976 77.602745,195.131653 
	C70.789642,194.652481 62.998993,199.353455 57.713173,191.181793 
	C57.646885,191.079330 57.394646,191.111450 57.243107,191.047714 
	C49.393024,187.746017 42.133720,182.960846 33.410538,181.816574 
	C32.128551,181.648407 30.753178,180.397018 29.870848,179.288712 
	C26.087616,174.536545 22.324707,169.808212 16.868603,166.804199 
	C16.464582,166.581772 16.267954,166.012100 15.895459,165.698120 
	C13.709520,163.855576 11.499966,162.041077 8.397536,159.470810 
	C8.406161,152.457336 7.460323,151.156128 1.000000,151.000000 
z"/>
<path fill="#DCEAF6" opacity="1.000000" stroke="none" 
	d="
M153.000000,328.000000 
	C102.431595,328.000000 51.863194,328.000000 1.000000,328.000000 
	C1.000000,303.646576 1.000000,279.291931 1.399941,254.478241 
	C8.359565,255.898819 14.917997,257.782837 21.479837,259.654907 
	C23.044504,260.101288 25.336544,259.994232 26.071239,261.018677 
	C29.871943,266.318237 35.945412,266.739288 41.316704,268.496307 
	C44.138733,269.419434 47.345009,269.091278 50.320690,269.638550 
	C55.296745,270.553772 60.182072,272.139282 65.187668,272.673431 
	C71.913208,273.391144 78.717407,273.364197 85.486549,273.684143 
	C88.894630,273.845215 92.297989,274.168884 95.706940,274.232117 
	C99.295372,274.298645 103.195480,273.224915 106.405548,274.301239 
	C111.049141,275.858215 114.625259,274.421173 118.628860,272.816681 
	C121.179802,271.794403 124.301949,270.663361 126.742760,271.275787 
	C130.038910,272.102844 132.795364,274.252594 133.893814,268.982269 
	C133.975479,268.590546 135.289230,268.369843 136.059464,268.221069 
	C141.956879,267.082123 147.872849,266.034912 153.751129,264.806274 
	C154.583969,264.632233 155.228394,263.612061 155.987411,263.018555 
	C157.798813,261.602203 159.438187,259.773865 161.483017,258.883972 
	C167.660019,256.195709 174.231750,254.755615 180.012939,250.741013 
	C187.234634,245.726074 195.768082,242.554932 202.807846,237.336685 
	C209.039474,232.717468 213.952209,226.334900 219.554001,220.839645 
	C221.109528,219.313721 223.170624,218.311737 224.781021,216.831406 
	C228.485580,213.426147 232.294052,210.084702 235.610901,206.321243 
	C238.702316,202.813538 241.880692,199.102081 243.809921,194.921539 
	C246.220657,189.697586 249.888626,186.504639 254.950775,184.433228 
	C255.213043,184.325912 255.428543,183.945206 255.537048,183.645218 
	C257.152527,179.179550 259.436523,174.809937 260.130310,170.201981 
	C260.702057,166.404678 259.687866,162.523224 265.300171,162.394592 
	C265.474365,162.390594 265.798706,161.860397 265.780640,161.594025 
	C265.456451,156.821045 267.016571,152.810410 270.544037,149.571228 
	C268.331970,142.765060 277.445526,139.446976 275.778809,132.699814 
	C275.593567,131.950012 277.144684,130.886505 277.582886,129.839691 
	C278.197601,128.371246 279.251984,126.554047 278.853699,125.281937 
	C276.502380,117.771782 281.476715,111.737846 283.627106,105.600945 
	C285.265106,100.926331 287.523163,98.295769 282.761536,96.003693 
	C284.279541,93.166573 285.667023,90.828148 286.668976,88.334816 
	C286.777588,88.064529 284.656219,86.898132 283.285767,86.055191 
	C282.410065,84.976074 281.817810,83.989159 281.579529,82.936295 
	C282.623535,81.762749 283.267578,80.622772 284.017670,79.557487 
	C284.651093,78.657906 285.407501,77.844933 286.306427,77.270844 
	C286.843506,78.626259 287.183624,79.704453 287.176758,81.000336 
	C284.795319,85.589508 287.886353,84.938599 290.707764,85.004143 
	C296.649628,88.447433 299.370270,88.685013 303.509216,86.241508 
	C295.541382,85.355438 293.896301,83.986092 292.846161,77.365509 
	C291.356079,67.970985 293.500031,62.701485 300.312561,59.980164 
	C303.389191,61.898598 306.107910,63.730824 308.612854,65.418991 
	C308.612854,63.900494 308.612854,61.614883 308.612854,59.446148 
	C304.632843,59.180004 301.035858,58.939476 297.084442,58.679714 
	C294.268158,60.149868 291.806366,61.639259 288.933655,63.094711 
	C282.259705,61.980667 280.952698,55.044235 284.987335,48.672504 
	C283.204254,44.747986 281.417328,41.589207 280.320435,38.206673 
	C278.921600,33.893223 278.306854,29.325859 276.914276,25.009871 
	C276.073792,22.405046 273.418396,20.117329 273.296051,17.603523 
	C273.015472,11.839364 272.901520,6.189209 270.000000,1.000000 
	C294.020905,1.000000 318.041779,1.000000 342.532440,1.402977 
	C344.967102,9.713750 347.549042,17.529430 348.746674,25.551771 
	C350.384583,36.523296 350.969910,47.651955 351.554077,58.803146 
	C347.479309,58.893028 343.856812,58.893028 340.747559,58.893028 
	C341.603638,68.524048 342.267731,77.630646 340.357880,86.884384 
	C342.589325,86.884384 345.540436,86.884384 347.678406,86.884384 
	C347.398499,82.612404 347.122498,78.400055 346.770386,73.026421 
	C349.535492,74.366562 351.208038,75.177185 352.849579,75.972778 
	C352.849579,74.166801 352.849579,72.365128 352.849579,70.517365 
	C350.994141,71.111328 349.270782,71.663010 347.364166,72.273361 
	C347.364166,67.998917 347.364166,64.425110 347.364166,60.907173 
	C354.291656,59.970245 355.912201,60.862656 357.178619,66.595352 
	C356.672272,68.804749 356.029724,70.583664 356.065125,72.348976 
	C356.137115,75.936569 355.629395,78.917007 352.999023,81.887878 
	C350.557953,84.644966 349.913361,88.400345 352.874176,91.898506 
	C354.695221,94.049988 355.024780,96.123611 353.953003,99.464745 
	C351.231384,107.949074 349.831421,116.862465 347.987701,125.622055 
	C345.604340,136.945862 343.591370,148.357864 340.828033,159.586472 
	C339.702515,164.159973 336.764099,168.255585 335.116669,172.739868 
	C332.695404,179.330566 330.709625,186.080673 328.480255,192.743423 
	C328.283722,193.330795 327.561584,193.721832 327.249329,194.294449 
	C325.831390,196.894684 324.666260,199.654373 323.047607,202.118530 
	C320.634460,205.792068 317.936951,209.280518 315.318115,212.816391 
	C314.281647,214.215820 313.001007,215.447556 312.067230,216.906464 
	C310.955750,218.642929 310.143127,220.567398 309.121338,222.365112 
	C305.798035,228.212128 298.600800,228.637329 294.232758,232.889587 
	C290.030121,236.980820 286.772552,242.215271 280.054626,242.529739 
	C279.937683,242.535202 279.833435,242.764572 279.719482,242.885910 
	C275.093506,247.810760 270.456116,252.724976 265.846008,257.664673 
	C263.934631,259.712738 262.364258,262.197388 260.155975,263.830750 
	C246.112503,274.218109 232.121704,284.696472 217.722870,294.575439 
	C210.264496,299.692596 202.216446,304.080750 194.057617,308.016266 
	C181.394714,314.124390 168.395798,319.534088 155.586761,325.344452 
	C154.538651,325.819885 153.853699,327.095947 153.000000,328.000000 
M316.800354,101.639679 
	C318.636841,102.688316 320.033936,102.899956 320.637787,100.019417 
	C324.005829,100.149734 324.448151,98.422508 323.984955,97.051079 
	C321.876373,95.910904 320.877167,95.133987 319.751740,94.839691 
	C318.908203,94.619118 317.902191,95.019699 316.387146,95.255356 
	C316.425903,97.201950 316.464661,99.148552 316.800354,101.639679 
M342.401886,96.527374 
	C341.473846,95.825272 340.545837,95.123161 339.617767,94.421051 
	C339.073120,96.100220 338.086914,97.799019 338.160339,99.450699 
	C338.200195,100.346352 340.044983,101.161743 341.712280,101.889038 
	C341.809601,100.263031 341.906891,98.637032 342.401886,96.527374 
M322.414490,58.761646 
	C322.414490,58.761646 321.993683,59.004772 321.295807,59.085667 
	C313.054321,63.567142 309.994659,73.081573 314.186768,81.192177 
	C317.238342,87.096191 323.857025,89.328598 328.866608,86.769951 
	C326.599640,85.713020 323.144012,85.108154 321.310150,83.054863 
	C316.174744,77.304985 318.540680,64.444695 325.780182,60.107525 
	C328.937286,61.935616 332.094360,63.763702 334.892029,65.383667 
	C334.892029,64.484550 334.892029,62.242474 334.892029,59.934700 
	C331.572693,59.390820 328.258057,58.847710 324.404785,58.210186 
	C323.903351,58.394169 323.401886,58.578152 322.414490,58.761646 
M295.297668,95.902069 
	C295.484894,96.427101 295.672119,96.952133 295.859344,97.477165 
	C296.130829,97.355072 296.402313,97.232979 296.673798,97.110886 
	C296.356873,96.570343 296.039978,96.029800 295.297668,95.902069 
M287.425507,95.485512 
	C287.425507,95.485512 287.520142,95.432915 287.425507,95.485512 
z"/>
<path fill="#D8E8F4" opacity="1.000000" stroke="none" 
	d="
M269.531342,1.000000 
	C272.901520,6.189209 273.015472,11.839364 273.296051,17.603523 
	C273.418396,20.117329 276.073792,22.405046 276.914276,25.009871 
	C278.306854,29.325859 278.921600,33.893223 280.320435,38.206673 
	C281.417328,41.589207 283.204254,44.747986 284.987335,48.672504 
	C280.952698,55.044235 282.259705,61.980667 288.792053,63.434845 
	C288.077332,68.203827 287.093384,72.598724 286.109467,76.993622 
	C285.407501,77.844933 284.651093,78.657906 284.017670,79.557487 
	C283.267578,80.622772 282.623535,81.762749 281.391876,82.607819 
	C277.880981,74.556015 274.911743,66.766739 271.480164,57.764584 
	C269.979218,62.328686 268.868042,65.707634 267.501190,69.220383 
	C268.256958,69.856873 269.268372,70.359566 270.498962,71.145660 
	C271.205017,73.302734 271.691864,75.176422 271.761169,77.026428 
	C270.063782,76.881866 268.783936,76.760986 267.303223,76.621132 
	C267.303223,75.008408 267.303223,73.659843 267.303223,72.311287 
	C266.826508,72.173737 266.349823,72.036186 265.873108,71.898636 
	C265.040710,74.430038 264.208313,76.961449 263.017975,80.581337 
	C266.729309,79.907196 269.376190,79.426407 272.375549,79.044502 
	C273.684052,81.555748 274.640106,83.968117 275.950806,87.275322 
	C277.637085,87.025665 280.603180,86.586533 283.569244,86.147400 
	C284.656219,86.898132 286.777588,88.064529 286.668976,88.334816 
	C285.667023,90.828148 284.279541,93.166573 282.761536,96.003693 
	C287.523163,98.295769 285.265106,100.926331 283.627106,105.600945 
	C281.476715,111.737846 276.502380,117.771782 278.853699,125.281937 
	C279.251984,126.554047 278.197601,128.371246 277.582886,129.839691 
	C277.144684,130.886505 275.593567,131.950012 275.778809,132.699814 
	C277.445526,139.446976 268.331970,142.765060 270.544037,149.571228 
	C267.016571,152.810410 265.456451,156.821045 265.780640,161.594025 
	C265.798706,161.860397 265.474365,162.390594 265.300171,162.394592 
	C259.687866,162.523224 260.702057,166.404678 260.130310,170.201981 
	C259.436523,174.809937 257.152527,179.179550 255.537048,183.645218 
	C255.428543,183.945206 255.213043,184.325912 254.950775,184.433228 
	C249.888626,186.504639 246.220657,189.697586 243.809921,194.921539 
	C241.880692,199.102081 238.702316,202.813538 235.610901,206.321243 
	C232.294052,210.084702 228.485580,213.426147 224.781021,216.831406 
	C223.170624,218.311737 221.109528,219.313721 219.554001,220.839645 
	C213.952209,226.334900 209.039474,232.717468 202.807846,237.336685 
	C195.768082,242.554932 187.234634,245.726074 180.012939,250.741013 
	C174.231750,254.755615 167.660019,256.195709 161.483017,258.883972 
	C159.438187,259.773865 157.798813,261.602203 155.987411,263.018555 
	C155.228394,263.612061 154.583969,264.632233 153.751129,264.806274 
	C147.872849,266.034912 141.956879,267.082123 136.059464,268.221069 
	C135.289230,268.369843 133.975479,268.590546 133.893814,268.982269 
	C132.795364,274.252594 130.038910,272.102844 126.742760,271.275787 
	C124.301949,270.663361 121.179802,271.794403 118.628860,272.816681 
	C114.625259,274.421173 111.049141,275.858215 106.405548,274.301239 
	C103.195480,273.224915 99.295372,274.298645 95.706940,274.232117 
	C92.297989,274.168884 88.894630,273.845215 85.486549,273.684143 
	C78.717407,273.364197 71.913208,273.391144 65.187668,272.673431 
	C60.182072,272.139282 55.296745,270.553772 50.320690,269.638550 
	C47.345009,269.091278 44.138733,269.419434 41.316704,268.496307 
	C35.945412,266.739288 29.871943,266.318237 26.071239,261.018677 
	C25.336544,259.994232 23.044504,260.101288 21.479837,259.654907 
	C14.917997,257.782837 8.359565,255.898819 1.399941,254.009583 
	C1.000000,219.979111 1.000000,185.958206 1.000000,151.468658 
	C7.460323,151.156128 8.406161,152.457336 8.397536,159.470810 
	C11.499966,162.041077 13.709520,163.855576 15.895459,165.698120 
	C16.267954,166.012100 16.464582,166.581772 16.868603,166.804199 
	C22.324707,169.808212 26.087616,174.536545 29.870848,179.288712 
	C30.753178,180.397018 32.128551,181.648407 33.410538,181.816574 
	C42.133720,182.960846 49.393024,187.746017 57.243107,191.047714 
	C57.394646,191.111450 57.646885,191.079330 57.713173,191.181793 
	C62.998993,199.353455 70.789642,194.652481 77.602745,195.131653 
	C83.863235,195.571976 90.095055,196.807816 96.346512,196.860428 
	C100.968262,196.899338 105.605820,195.629196 110.227638,194.888000 
	C113.282280,194.398148 116.317955,193.790771 119.370125,193.284256 
	C120.133621,193.157532 121.357498,193.530777 121.641724,193.141983 
	C124.495056,189.239029 127.454674,191.429855 130.147400,192.860016 
	C135.061523,189.161041 139.698639,185.486557 144.564880,182.145828 
	C145.686554,181.375793 147.668777,181.388367 149.119629,181.690628 
	C150.847382,182.050568 152.429260,183.110733 155.210785,184.390289 
	C158.291565,179.058426 161.124725,173.692825 164.442444,168.645782 
	C165.729828,166.687347 168.798370,165.816376 169.870499,163.815170 
	C173.403214,157.221100 180.521393,154.311966 184.758118,148.616714 
	C187.819321,144.501648 190.653564,140.094879 192.792282,135.451233 
	C194.903625,130.867050 195.934998,125.793854 197.628571,121.001778 
	C197.970078,120.035446 199.031937,118.887497 199.974060,118.643585 
	C204.567490,117.454323 204.601166,115.168335 202.009308,111.887009 
	C201.539337,111.292038 201.461624,110.387222 201.343109,110.038361 
	C203.407578,108.168846 205.194931,106.550262 207.429260,104.480026 
	C209.984619,104.028374 212.092987,104.028374 214.059601,104.028374 
	C214.492981,102.088890 214.792526,100.748352 214.811890,100.661682 
	C221.577316,101.080605 227.766281,102.100861 233.827942,101.595116 
	C237.343079,101.301834 239.738251,100.557236 239.948395,104.205292 
	C245.203217,104.205292 249.915436,104.205292 255.502853,104.205292 
	C251.122742,99.401459 246.257889,95.677620 249.085495,89.411797 
	C251.161987,84.810425 250.653442,77.533043 259.926697,79.211403 
	C259.683441,78.661644 259.440186,78.111885 259.196960,77.562126 
	C257.161560,76.925453 255.126190,76.288780 253.002975,75.624626 
	C252.448685,72.825569 251.885361,69.980865 251.302963,67.039886 
	C248.280258,68.261864 248.280258,68.261864 247.811035,76.234207 
	C245.768555,75.825699 242.512558,76.003395 242.043060,74.945007 
	C239.160263,68.446259 236.907562,61.667988 234.536728,55.231400 
	C237.965836,53.731354 240.576111,60.102409 243.256775,54.090027 
	C241.103104,52.739517 239.070816,51.375534 236.950974,50.164825 
	C235.325470,49.236443 232.809113,48.946140 232.042480,47.600780 
	C229.243835,42.689491 224.990158,45.861973 221.121140,44.723606 
	C221.599472,46.286407 221.921005,47.336926 221.925186,47.350571 
	C217.210251,51.218651 212.922165,54.736561 208.634064,58.254471 
	C207.470337,56.551895 204.952698,53.887455 205.366211,53.305397 
	C207.755249,49.942608 205.577286,47.622849 204.064758,45.313580 
	C201.246231,41.010303 200.175369,36.563004 200.456741,31.347017 
	C200.620880,28.304272 198.791656,25.153999 197.730042,21.622219 
	C192.827103,23.436472 191.919601,20.142750 191.928574,15.636033 
	C191.930618,14.608652 191.354172,13.428607 190.704788,12.577681 
	C187.900589,8.903118 184.970413,5.324713 182.043045,1.355655 
	C211.020889,1.000000 240.041794,1.000000 269.531342,1.000000 
M265.321808,101.331612 
	C266.957947,93.081757 265.849579,90.984299 260.079712,91.619064 
	C260.079712,95.112541 260.079712,98.612785 260.079712,102.505592 
	C261.901733,102.269791 263.335571,102.084221 265.321808,101.331612 
M93.745880,202.018799 
	C93.014488,200.949417 92.283096,199.880035 91.551704,198.810654 
	C91.065697,199.293793 90.579697,199.776932 90.093689,200.260071 
	C91.168236,201.013092 92.242790,201.766129 93.745880,202.018799 
M212.650925,111.076897 
	C212.922256,111.876160 213.193573,112.675430 213.464905,113.474701 
	C213.928467,113.157448 214.392029,112.840187 214.855591,112.522919 
	C214.279877,111.888252 213.704147,111.253578 212.650925,111.076897 
M207.633759,114.167252 
	C207.171204,113.532257 206.708664,112.897263 206.246109,112.262260 
	C205.919647,112.582397 205.593185,112.902534 205.266724,113.222679 
	C205.893784,113.696022 206.520828,114.169357 207.633759,114.167252 
M262.811096,81.749466 
	C262.975159,81.629478 263.139221,81.509491 263.303284,81.389503 
	C263.074554,81.414474 262.845795,81.439445 262.811096,81.749466 
z"/>
<path fill="#E1EEF7" opacity="1.000000" stroke="none" 
	d="
M352.006378,58.713261 
	C350.969910,47.651955 350.384583,36.523296 348.746674,25.551771 
	C347.549042,17.529430 344.967102,9.713750 343.001099,1.402977 
	C366.020905,1.000000 389.041779,1.000000 412.531342,1.448514 
	C414.158936,12.241726 415.562164,22.566320 416.415527,32.936165 
	C417.501312,46.130314 418.206604,59.357655 418.911896,72.579437 
	C419.032776,74.845604 418.129608,77.148224 418.048462,79.446327 
	C417.569214,93.013641 418.323273,106.737938 416.508179,120.117157 
	C414.004089,138.575150 410.424225,156.993378 405.694519,175.005737 
	C402.566071,186.919937 397.583679,198.625793 391.643250,209.442978 
	C385.972351,219.769394 377.961578,228.806717 371.031799,238.448380 
	C368.834442,241.505676 366.889679,244.745117 364.678802,247.792007 
	C361.723785,251.864502 357.472595,255.412781 355.829865,259.931976 
	C352.697052,268.550507 342.219940,270.627655 339.792572,279.456635 
	C339.728119,279.690979 339.232208,279.784912 338.975586,279.991638 
	C336.405731,282.062042 333.675934,283.968048 331.307983,286.249207 
	C319.288513,297.828003 307.325775,309.466644 295.441284,321.183868 
	C293.385620,323.210571 291.801758,325.715790 290.000000,328.000000 
	C265.979095,328.000000 241.958206,328.000000 217.469391,327.615479 
	C217.116928,323.939148 217.947357,321.521118 222.099152,322.788300 
	C222.630814,322.950592 223.412369,322.649689 223.959946,322.348480 
	C228.869781,319.647919 233.714890,316.827393 238.659546,314.193298 
	C241.327179,312.772217 243.554245,311.425415 242.596313,307.706909 
	C242.429245,307.058380 244.051025,305.586151 245.124237,305.046173 
	C248.988052,303.102234 253.638641,302.164001 256.773743,299.442413 
	C263.984528,293.182739 271.659882,287.442139 278.243866,280.418182 
	C283.868561,274.417572 290.566010,269.397064 295.988098,263.238007 
	C303.741577,254.430710 310.694061,244.922699 318.127625,235.827576 
	C322.421692,230.573700 326.749817,225.308075 331.498535,220.476151 
	C336.578064,215.307587 343.211731,211.370026 347.264313,205.566483 
	C351.916046,198.904907 355.068146,190.992599 357.802917,183.246292 
	C361.409698,173.029877 364.083923,162.475754 366.952728,152.010254 
	C368.824371,145.182510 370.468353,138.284348 371.965424,131.363876 
	C374.084381,121.568832 375.973785,111.724144 377.879883,101.544510 
	C377.486694,98.290924 377.174957,95.393501 376.803162,91.938110 
	C375.764771,93.055984 375.330200,93.523834 374.614044,94.020538 
	C374.148865,94.092934 373.965271,94.136490 373.527557,94.374908 
	C373.149506,95.389610 373.025543,96.209442 372.529297,97.019379 
	C371.412292,96.997475 370.667603,96.985474 369.861572,96.619080 
	C368.214478,92.006607 365.748993,89.644562 362.202332,91.681572 
	C362.360413,95.053543 362.499908,98.028572 362.468018,101.498001 
	C362.197357,102.326820 362.098053,102.661240 361.657471,103.056938 
	C360.879608,104.081680 360.443085,105.045135 360.073456,106.368828 
	C364.979340,112.081703 364.201508,116.382103 358.069305,119.278679 
	C357.120331,119.726952 356.292908,121.193214 356.084015,122.314438 
	C355.232666,126.883064 354.668182,131.504379 353.953156,136.099319 
	C352.305450,146.688416 350.907593,157.328552 348.811127,167.828751 
	C348.123169,171.274490 345.752533,174.447800 343.863342,177.571518 
	C342.124268,180.447021 339.845978,182.995590 338.095062,185.865036 
	C336.869629,187.873337 336.242249,190.236801 335.146881,192.336853 
	C333.926025,194.677551 332.227356,196.793121 331.201630,199.204468 
	C330.252258,201.436325 330.484955,204.309357 329.198669,206.232056 
	C326.085144,210.886139 322.504181,215.246613 318.906342,219.553909 
	C309.453003,230.871246 300.193878,242.373108 290.282593,253.279083 
	C281.025574,263.465088 271.505493,273.517151 261.213684,282.625275 
	C252.476898,290.357269 242.755768,297.091919 232.950317,303.468414 
	C223.529800,309.594543 213.393570,314.611633 203.669983,320.284302 
	C199.648331,322.630524 195.882294,325.414917 192.000000,328.000000 
	C179.312439,328.000000 166.624878,328.000000 153.468658,328.000000 
	C153.853699,327.095947 154.538651,325.819885 155.586761,325.344452 
	C168.395798,319.534088 181.394714,314.124390 194.057617,308.016266 
	C202.216446,304.080750 210.264496,299.692596 217.722870,294.575439 
	C232.121704,284.696472 246.112503,274.218109 260.155975,263.830750 
	C262.364258,262.197388 263.934631,259.712738 265.846008,257.664673 
	C270.456116,252.724976 275.093506,247.810760 279.719482,242.885910 
	C279.833435,242.764572 279.937683,242.535202 280.054626,242.529739 
	C286.772552,242.215271 290.030121,236.980820 294.232758,232.889587 
	C298.600800,228.637329 305.798035,228.212128 309.121338,222.365112 
	C310.143127,220.567398 310.955750,218.642929 312.067230,216.906464 
	C313.001007,215.447556 314.281647,214.215820 315.318115,212.816391 
	C317.936951,209.280518 320.634460,205.792068 323.047607,202.118530 
	C324.666260,199.654373 325.831390,196.894684 327.249329,194.294449 
	C327.561584,193.721832 328.283722,193.330795 328.480255,192.743423 
	C330.709625,186.080673 332.695404,179.330566 335.116669,172.739868 
	C336.764099,168.255585 339.702515,164.159973 340.828033,159.586472 
	C343.591370,148.357864 345.604340,136.945862 347.987701,125.622055 
	C349.831421,116.862465 351.231384,107.949074 353.953003,99.464745 
	C355.024780,96.123611 354.695221,94.049988 352.874176,91.898506 
	C349.913361,88.400345 350.557953,84.644966 352.999023,81.887878 
	C355.629395,78.917007 356.137115,75.936569 356.065125,72.348976 
	C356.029724,70.583664 356.672272,68.804749 357.363770,66.319756 
	C357.826691,63.459503 357.933868,61.311485 358.042267,59.138374 
	C355.544586,58.962460 353.775482,58.837860 352.006378,58.713261 
M392.837494,74.159500 
	C390.530182,70.717133 387.923340,67.433670 385.991486,63.792122 
	C383.584473,59.254742 380.261169,57.835670 375.349854,59.380093 
	C381.585663,68.271873 387.795868,77.127159 394.204132,86.625107 
	C394.823608,86.085464 395.973724,85.553879 395.982056,85.004944 
	C396.087891,78.033684 396.051086,71.059708 395.976196,64.087219 
	C395.969543,63.469681 395.442139,62.857731 394.767181,61.405014 
	C394.136627,66.538010 393.631073,70.653755 392.837494,74.159500 
M369.506256,59.109741 
	C366.919952,59.109741 364.333679,59.109741 362.424194,59.109741 
	C362.424194,68.612160 362.424194,77.690300 362.424194,86.759766 
	C364.795197,86.759766 367.526062,86.759766 368.845520,86.759766 
	C369.298035,77.461212 369.735687,68.468536 369.506256,59.109741 
M391.956207,93.746086 
	C390.952087,93.158287 389.947968,92.570480 389.078339,92.061394 
	C388.181366,95.243263 387.445984,97.852013 386.710571,100.460762 
	C386.285889,100.328506 385.861206,100.196259 385.436554,100.064011 
	C384.999512,97.103172 384.562500,94.142334 384.125488,91.181503 
	C383.636841,91.255112 383.148224,91.328720 382.659607,91.402328 
	C382.659607,93.077782 382.659607,94.753242 382.659607,96.428703 
	C382.237213,96.285545 381.814850,96.142387 381.392456,95.999237 
	C380.619324,97.163322 379.846191,98.327408 379.073059,99.491501 
	C380.964478,100.667488 382.774170,102.658783 384.763519,102.858292 
	C389.667877,103.350166 394.654785,103.019463 399.464325,103.019463 
	C398.566925,98.718513 397.874054,95.397766 397.160980,91.980270 
	C395.304474,92.780693 393.992981,93.346115 391.956207,93.746086 
M360.965027,96.531509 
	C360.894043,96.381943 360.856354,96.193802 360.741730,96.094711 
	C360.645844,96.011826 360.336395,95.996788 360.331512,96.013405 
	C359.971191,97.239655 359.631836,98.472054 359.290802,99.703957 
	C359.863159,99.809975 360.435547,99.915985 361.007904,100.021996 
	C361.007904,99.052124 361.007904,98.082253 360.965027,96.531509 
M344.578766,172.809692 
	C344.204193,172.805206 343.829590,172.800735 343.455017,172.796265 
	C343.453278,172.951675 343.440948,173.242142 343.451324,173.242966 
	C343.824036,173.272186 344.198853,173.274368 344.578766,172.809692 
M378.517029,91.412903 
	C378.517029,91.412903 378.583893,91.526146 378.517029,91.412903 
z"/>
<path fill="#E9F3FB" opacity="1.000000" stroke="none" 
	d="
M402.000000,328.000000 
	C384.312439,328.000000 366.624878,328.000000 348.475037,327.630249 
	C348.377441,326.369385 348.548462,325.317322 349.135498,324.610992 
	C359.891327,311.669617 370.655365,298.734589 381.508850,285.875122 
	C387.312012,278.999420 390.126343,269.665680 398.944214,265.204620 
	C401.163971,264.081635 402.973694,261.787781 404.475861,259.678741 
	C408.027252,254.692657 410.643524,248.864517 414.867157,244.592072 
	C417.937134,241.486572 417.979462,239.361588 415.321259,235.401016 
	C422.727203,233.788376 424.876312,228.003433 427.210663,222.283005 
	C428.135468,220.016678 429.563995,217.959183 430.716400,215.781860 
	C435.108978,207.482773 440.799957,199.585938 443.558319,190.772766 
	C447.832153,177.117508 450.663757,162.930313 453.066956,148.791885 
	C455.665466,133.504425 458.103882,118.055992 458.731903,102.601372 
	C459.506226,83.546341 458.877472,64.383202 457.839722,45.322063 
	C457.032990,30.504131 454.670868,15.770883 453.000000,0.999999 
	C470.687561,1.000000 488.375122,1.000000 506.488464,1.364802 
	C506.926727,3.280941 506.740295,4.864927 506.988525,6.377574 
	C507.774689,11.167948 508.809540,15.918008 509.568573,20.712101 
	C509.894348,22.769644 509.716766,24.901779 509.872284,26.992260 
	C510.553314,36.148235 511.274445,45.301220 511.970398,54.456093 
	C511.995239,54.782570 512.003845,55.167259 511.860382,55.441242 
	C507.996765,62.820675 511.057770,70.678368 510.459106,78.288742 
	C509.981964,84.354515 511.401703,90.563904 511.873199,96.717667 
	C511.926697,97.416405 511.497833,98.455688 510.945190,98.849602 
	C506.184601,102.242767 507.614227,104.928101 511.906525,107.040962 
	C510.904541,110.742973 508.546051,114.497002 509.349335,117.365746 
	C512.475159,128.529404 509.470367,139.630096 508.047424,150.183609 
	C506.784332,159.551773 507.978729,171.476074 497.672424,178.150696 
	C497.333893,178.369995 497.306519,179.043839 497.092682,179.485718 
	C495.128845,183.543610 493.135376,187.587265 491.190308,191.654083 
	C488.200348,197.905609 485.085327,204.103745 482.309387,210.449615 
	C478.802856,218.465424 475.255005,226.489944 472.324890,234.724167 
	C468.789764,244.658661 464.673492,254.004105 455.643982,260.316864 
	C454.773407,260.925476 453.925842,262.763184 454.222778,263.638428 
	C455.506653,267.423035 453.698761,267.970184 450.648315,267.533600 
	C450.622437,274.772308 450.229095,275.434723 443.484344,280.446350 
	C442.876312,280.898132 442.435455,281.692261 442.132233,282.417419 
	C440.375122,286.619446 438.832092,290.917633 436.921448,295.046722 
	C435.360443,298.420288 434.101624,302.457520 431.440125,304.683746 
	C426.611572,308.722656 420.657288,311.380646 415.512054,315.085968 
	C410.447876,318.732941 403.570190,320.648132 402.000000,328.000000 
M499.461395,168.716980 
	C499.719971,168.988541 499.976196,169.262634 500.250458,169.517319 
	C500.257477,169.523819 500.462128,169.317490 500.574615,169.210434 
	C500.315674,168.938797 500.056763,168.667160 499.461395,168.716980 
z"/>
<path fill="#E5F0F9" opacity="1.000000" stroke="none" 
	d="
M452.531372,0.999999 
	C454.670868,15.770883 457.032990,30.504131 457.839722,45.322063 
	C458.877472,64.383202 459.506226,83.546341 458.731903,102.601372 
	C458.103882,118.055992 455.665466,133.504425 453.066956,148.791885 
	C450.663757,162.930313 447.832153,177.117508 443.558319,190.772766 
	C440.799957,199.585938 435.108978,207.482773 430.716400,215.781860 
	C429.563995,217.959183 428.135468,220.016678 427.210663,222.283005 
	C424.876312,228.003433 422.727203,233.788376 415.321259,235.401016 
	C417.979462,239.361588 417.937134,241.486572 414.867157,244.592072 
	C410.643524,248.864517 408.027252,254.692657 404.475861,259.678741 
	C402.973694,261.787781 401.163971,264.081635 398.944214,265.204620 
	C390.126343,269.665680 387.312012,278.999420 381.508850,285.875122 
	C370.655365,298.734589 359.891327,311.669617 349.135498,324.610992 
	C348.548462,325.317322 348.377441,326.369385 348.006378,327.630249 
	C328.979095,328.000000 309.958221,328.000000 290.468658,328.000000 
	C291.801758,325.715790 293.385620,323.210571 295.441284,321.183868 
	C307.325775,309.466644 319.288513,297.828003 331.307983,286.249207 
	C333.675934,283.968048 336.405731,282.062042 338.975586,279.991638 
	C339.232208,279.784912 339.728119,279.690979 339.792572,279.456635 
	C342.219940,270.627655 352.697052,268.550507 355.829865,259.931976 
	C357.472595,255.412781 361.723785,251.864502 364.678802,247.792007 
	C366.889679,244.745117 368.834442,241.505676 371.031799,238.448380 
	C377.961578,228.806717 385.972351,219.769394 391.643250,209.442978 
	C397.583679,198.625793 402.566071,186.919937 405.694519,175.005737 
	C410.424225,156.993378 414.004089,138.575150 416.508179,120.117157 
	C418.323273,106.737938 417.569214,93.013641 418.048462,79.446327 
	C418.129608,77.148224 419.032776,74.845604 418.911896,72.579437 
	C418.206604,59.357655 417.501312,46.130314 416.415527,32.936165 
	C415.562164,22.566320 414.158936,12.241726 413.000000,1.448514 
	C426.020905,1.000000 439.041779,1.000000 452.531372,0.999999 
z"/>
<path fill="#ECF5FC" opacity="1.000000" stroke="none" 
	d="
M402.468658,328.000000 
	C403.570190,320.648132 410.447876,318.732941 415.512054,315.085968 
	C420.657288,311.380646 426.611572,308.722656 431.440125,304.683746 
	C434.101624,302.457520 435.360443,298.420288 436.921448,295.046722 
	C438.832092,290.917633 440.375122,286.619446 442.132233,282.417419 
	C442.435455,281.692261 442.876312,280.898132 443.484344,280.446350 
	C450.229095,275.434723 450.622437,274.772308 450.648315,267.533600 
	C453.698761,267.970184 455.506653,267.423035 454.222778,263.638428 
	C453.925842,262.763184 454.773407,260.925476 455.643982,260.316864 
	C464.673492,254.004105 468.789764,244.658661 472.324890,234.724167 
	C475.255005,226.489944 478.802856,218.465424 482.309387,210.449615 
	C485.085327,204.103745 488.200348,197.905609 491.190308,191.654083 
	C493.135376,187.587265 495.128845,183.543610 497.092682,179.485718 
	C497.306519,179.043839 497.333893,178.369995 497.672424,178.150696 
	C507.978729,171.476074 506.784332,159.551773 508.047424,150.183609 
	C509.470367,139.630096 512.475159,128.529404 509.349335,117.365746 
	C508.546051,114.497002 510.904541,110.742973 511.906525,107.040962 
	C507.614227,104.928101 506.184601,102.242767 510.945190,98.849602 
	C511.497833,98.455688 511.926697,97.416405 511.873199,96.717667 
	C511.401703,90.563904 509.981964,84.354515 510.459106,78.288742 
	C511.057770,70.678368 507.996765,62.820675 511.860382,55.441242 
	C512.003845,55.167259 511.995239,54.782570 511.970398,54.456093 
	C511.274445,45.301220 510.553314,36.148235 509.872284,26.992260 
	C509.716766,24.901779 509.894348,22.769644 509.568573,20.712101 
	C508.809540,15.918008 507.774689,11.167948 506.988525,6.377574 
	C506.740295,4.864927 506.926727,3.280941 506.957123,1.364802 
	C521.020874,1.000000 535.041809,1.000000 549.540405,1.398814 
	C551.010132,9.152615 552.140503,16.493080 552.914917,23.870907 
	C553.166626,26.268669 552.136169,28.787102 552.294739,31.210911 
	C553.081116,43.227749 554.284424,55.220619 554.886597,67.244675 
	C555.151123,72.528168 554.171509,77.862022 554.051208,83.179665 
	C553.888611,90.370041 554.097290,97.568352 553.972290,104.760223 
	C553.906433,108.548553 553.396240,112.326965 553.217041,116.116028 
	C552.903320,122.748955 553.901245,129.761658 552.004150,135.889084 
	C550.762024,139.901062 549.774231,143.616608 549.484802,147.799515 
	C548.988220,154.978088 547.606140,162.094055 547.072205,169.271744 
	C546.432312,177.874405 545.414246,186.069138 537.285034,191.354919 
	C536.057312,192.153290 535.736572,194.224380 534.682495,195.433121 
	C529.916565,200.898651 529.173767,209.584869 521.009033,212.412796 
	C520.130432,212.717087 519.129700,214.782135 519.346863,215.776917 
	C520.382690,220.521469 520.833801,224.850082 514.055054,226.849014 
	C514.439087,227.189865 514.823059,227.530731 515.207092,227.871597 
	C517.027283,228.521545 518.847412,229.171478 520.667603,229.821411 
	C518.143982,231.656128 515.489380,232.101913 513.012695,233.025177 
	C511.063385,233.751846 509.333618,235.067413 507.506348,236.121384 
	C508.466187,237.575714 509.425995,239.030029 510.577454,240.774658 
	C506.163727,242.635178 505.620758,246.486496 505.870880,250.936401 
	C505.942841,252.216492 504.848450,254.120270 503.719452,254.821915 
	C494.241119,260.712402 488.511627,269.215759 483.779785,279.251892 
	C478.970795,289.451660 472.294678,298.803436 466.096405,308.304901 
	C461.689453,315.060333 456.718994,321.448151 452.000000,328.000000 
	C435.645782,328.000000 419.291534,328.000000 402.468658,328.000000 
z"/>
<path fill="#EEF6FC" opacity="1.000000" stroke="none" 
	d="
M452.468658,328.000000 
	C456.718994,321.448151 461.689453,315.060333 466.096405,308.304901 
	C472.294678,298.803436 478.970795,289.451660 483.779785,279.251892 
	C488.511627,269.215759 494.241119,260.712402 503.719452,254.821915 
	C504.848450,254.120270 505.942841,252.216492 505.870880,250.936401 
	C505.620758,246.486496 506.163727,242.635178 510.577454,240.774658 
	C509.425995,239.030029 508.466187,237.575714 507.506348,236.121384 
	C509.333618,235.067413 511.063385,233.751846 513.012695,233.025177 
	C515.489380,232.101913 518.143982,231.656128 520.667603,229.821411 
	C518.847412,229.171478 517.027283,228.521545 515.207092,227.871597 
	C514.823059,227.530731 514.439087,227.189865 514.055054,226.849014 
	C520.833801,224.850082 520.382690,220.521469 519.346863,215.776917 
	C519.129700,214.782135 520.130432,212.717087 521.009033,212.412796 
	C529.173767,209.584869 529.916565,200.898651 534.682495,195.433121 
	C535.736572,194.224380 536.057312,192.153290 537.285034,191.354919 
	C545.414246,186.069138 546.432312,177.874405 547.072205,169.271744 
	C547.606140,162.094055 548.988220,154.978088 549.484802,147.799515 
	C549.774231,143.616608 550.762024,139.901062 552.004150,135.889084 
	C553.901245,129.761658 552.903320,122.748955 553.217041,116.116028 
	C553.396240,112.326965 553.906433,108.548553 553.972290,104.760223 
	C554.097290,97.568352 553.888611,90.370041 554.051208,83.179665 
	C554.171509,77.862022 555.151123,72.528168 554.886597,67.244675 
	C554.284424,55.220619 553.081116,43.227749 552.294739,31.210911 
	C552.136169,28.787102 553.166626,26.268669 552.914917,23.870907 
	C552.140503,16.493080 551.010132,9.152615 550.009033,1.398814 
	C557.319336,1.000000 564.638733,1.000000 572.000000,1.000000 
	C572.000000,70.020889 572.000000,139.041779 571.619019,208.538971 
	C567.369385,209.910553 565.960632,212.535736 565.984497,216.287735 
	C566.008179,220.014130 566.879822,223.968094 562.549133,226.409943 
	C561.748840,226.861221 561.652039,229.067581 561.705383,230.445496 
	C562.149902,241.935303 556.289856,251.249268 546.188110,256.207397 
	C541.299255,258.606903 536.377441,261.506012 532.525085,265.260864 
	C529.724792,267.990234 528.628723,272.481689 526.818115,276.209473 
	C524.155762,281.690765 521.887024,287.401062 518.792114,292.623505 
	C515.877380,297.541779 512.191406,302.017120 508.697052,306.574097 
	C504.353027,312.239044 499.857269,317.787659 495.427032,323.386536 
	C495.091583,323.126770 494.756134,322.867004 494.420685,322.607239 
	C494.613800,324.404816 494.806885,326.202423 495.000000,328.000000 
	C480.979095,328.000000 466.958221,328.000000 452.468658,328.000000 
z"/>
<path fill="#F0F7FD" opacity="1.000000" stroke="none" 
	d="
M495.468628,328.000000 
	C494.806885,326.202423 494.613800,324.404816 494.420685,322.607239 
	C494.756134,322.867004 495.091583,323.126770 495.427032,323.386536 
	C499.857269,317.787659 504.353027,312.239044 508.697052,306.574097 
	C512.191406,302.017120 515.877380,297.541779 518.792114,292.623505 
	C521.887024,287.401062 524.155762,281.690765 526.818115,276.209473 
	C528.628723,272.481689 529.724792,267.990234 532.525085,265.260864 
	C536.377441,261.506012 541.299255,258.606903 546.188110,256.207397 
	C556.289856,251.249268 562.149902,241.935303 561.705383,230.445496 
	C561.652039,229.067581 561.748840,226.861221 562.549133,226.409943 
	C566.879822,223.968094 566.008179,220.014130 565.984497,216.287735 
	C565.960632,212.535736 567.369385,209.910553 571.619019,209.007629 
	C572.000000,248.577927 572.000000,288.155853 572.000000,328.000000 
	C546.646423,328.000000 521.291870,328.000000 495.468628,328.000000 
z"/>
<path fill="#E0EDF7" opacity="1.000000" stroke="none" 
	d="
M369.922882,96.973473 
	C370.667603,96.985474 371.412292,96.997475 372.781860,97.012558 
	C373.573029,96.989738 373.739410,96.963829 374.217590,96.944183 
	C374.737274,96.948044 374.945160,96.945618 375.226013,97.320084 
	C376.186401,99.098213 377.073853,100.499451 377.961304,101.900688 
	C375.973785,111.724144 374.084381,121.568832 371.965424,131.363876 
	C370.468353,138.284348 368.824371,145.182510 366.952728,152.010254 
	C364.083923,162.475754 361.409698,173.029877 357.802917,183.246292 
	C355.068146,190.992599 351.916046,198.904907 347.264313,205.566483 
	C343.211731,211.370026 336.578064,215.307587 331.498535,220.476151 
	C326.749817,225.308075 322.421692,230.573700 318.127625,235.827576 
	C310.694061,244.922699 303.741577,254.430710 295.988098,263.238007 
	C290.566010,269.397064 283.868561,274.417572 278.243866,280.418182 
	C271.659882,287.442139 263.984528,293.182739 256.773743,299.442413 
	C253.638641,302.164001 248.988052,303.102234 245.124237,305.046173 
	C244.051025,305.586151 242.429245,307.058380 242.596313,307.706909 
	C243.554245,311.425415 241.327179,312.772217 238.659546,314.193298 
	C233.714890,316.827393 228.869781,319.647919 223.959946,322.348480 
	C223.412369,322.649689 222.630814,322.950592 222.099152,322.788300 
	C217.947357,321.521118 217.116928,323.939148 217.000732,327.615479 
	C208.979095,328.000000 200.958191,328.000000 192.468643,328.000000 
	C195.882294,325.414917 199.648331,322.630524 203.669983,320.284302 
	C213.393570,314.611633 223.529800,309.594543 232.950317,303.468414 
	C242.755768,297.091919 252.476898,290.357269 261.213684,282.625275 
	C271.505493,273.517151 281.025574,263.465088 290.282593,253.279083 
	C300.193878,242.373108 309.453003,230.871246 318.906342,219.553909 
	C322.504181,215.246613 326.085144,210.886139 329.198669,206.232056 
	C330.484955,204.309357 330.252258,201.436325 331.201630,199.204468 
	C332.227356,196.793121 333.926025,194.677551 335.146881,192.336853 
	C336.242249,190.236801 336.869629,187.873337 338.095062,185.865036 
	C339.845978,182.995590 342.124268,180.447021 343.863342,177.571518 
	C345.752533,174.447800 348.123169,171.274490 348.811127,167.828751 
	C350.907593,157.328552 352.305450,146.688416 353.953156,136.099319 
	C354.668182,131.504379 355.232666,126.883064 356.084015,122.314438 
	C356.292908,121.193214 357.120331,119.726952 358.069305,119.278679 
	C364.201508,116.382103 364.979340,112.081703 360.414612,106.308052 
	C361.125488,104.923248 361.562134,103.959457 361.998779,102.995667 
	C362.098053,102.661240 362.197357,102.326820 362.656921,101.791626 
	C364.547058,98.897072 366.382324,96.660088 369.922882,96.973473 
M371.361755,98.468742 
	C371.361755,98.468742 371.558075,98.577225 371.558075,98.577225 
	C371.558075,98.577225 371.526489,98.350510 371.361755,98.468742 
z"/>
<path fill="#0F63A2" opacity="1.000000" stroke="none" 
	d="
M208.479279,58.585670 
	C212.922165,54.736561 217.210251,51.218651 221.925186,47.350571 
	C221.921005,47.336926 221.599472,46.286407 221.121140,44.723606 
	C224.990158,45.861973 229.243835,42.689491 232.042480,47.600780 
	C232.809113,48.946140 235.325470,49.236443 236.950974,50.164825 
	C239.070816,51.375534 241.103104,52.739517 243.256775,54.090027 
	C240.576111,60.102409 237.965836,53.731354 234.536728,55.231400 
	C236.907562,61.667988 239.160263,68.446259 242.043060,74.945007 
	C242.512558,76.003395 245.768555,75.825699 247.811035,76.234207 
	C248.280258,68.261864 248.280258,68.261864 251.302963,67.039886 
	C251.885361,69.980865 252.448685,72.825569 253.002975,75.624626 
	C255.126190,76.288780 257.161560,76.925453 259.196960,77.562126 
	C259.440186,78.111885 259.683441,78.661644 259.926697,79.211403 
	C250.653442,77.533043 251.161987,84.810425 249.085495,89.411797 
	C246.257889,95.677620 251.122742,99.401459 255.502853,104.205292 
	C249.915436,104.205292 245.203217,104.205292 239.948395,104.205292 
	C239.738251,100.557236 237.343079,101.301834 233.827942,101.595116 
	C227.766281,102.100861 221.577316,101.080605 214.811890,100.661682 
	C214.792526,100.748352 214.492981,102.088890 214.059601,104.028374 
	C212.092987,104.028374 209.984619,104.028374 207.439758,104.108582 
	C205.933380,104.001717 204.863495,103.814644 203.140457,103.513359 
	C204.633942,102.328758 205.667053,101.572357 206.629196,100.734474 
	C209.653107,98.101181 211.094894,95.669678 208.373825,91.412918 
	C201.574921,80.776985 201.859833,69.760521 208.479279,58.585670 
M220.843765,83.933388 
	C225.268402,81.491600 229.693024,79.049820 234.528046,76.381561 
	C232.766815,71.421478 230.789688,65.853371 228.359329,59.008808 
	C225.089630,67.976746 222.256760,75.746643 219.135147,83.998802 
	C219.191315,84.270447 219.247482,84.542099 219.303635,84.813744 
	C219.611389,84.619820 219.919144,84.425888 220.843765,83.933388 
M207.710373,74.559441 
	C207.581253,79.824585 208.828049,84.632362 212.610016,89.398956 
	C217.113998,77.132553 221.404312,65.448112 225.877563,53.265396 
	C215.223328,54.749344 208.916061,62.260983 207.710373,74.559441 
M222.601761,91.122383 
	C221.328140,92.331680 220.054520,93.540970 218.689682,94.836884 
	C226.249344,99.727226 233.445541,99.015411 239.896835,92.985718 
	C238.779694,89.675858 237.639374,86.297371 236.234711,82.135651 
	C231.429794,85.273109 227.298599,87.970657 222.601761,91.122383 
z"/>
<path fill="#1082C2" opacity="1.000000" stroke="none" 
	d="
M351.554077,58.803146 
	C353.775482,58.837860 355.544586,58.962460 358.042267,59.138374 
	C357.933868,61.311485 357.826691,63.459503 357.534363,65.883118 
	C355.912201,60.862656 354.291656,59.970245 347.364166,60.907173 
	C347.364166,64.425110 347.364166,67.998917 347.364166,72.273361 
	C349.270782,71.663010 350.994141,71.111328 352.849579,70.517365 
	C352.849579,72.365128 352.849579,74.166801 352.849579,75.972778 
	C351.208038,75.177185 349.535492,74.366562 346.770386,73.026421 
	C347.122498,78.400055 347.398499,82.612404 347.678406,86.884384 
	C345.540436,86.884384 342.589325,86.884384 340.357880,86.884384 
	C342.267731,77.630646 341.603638,68.524048 340.747559,58.893028 
	C343.856812,58.893028 347.479309,58.893028 351.554077,58.803146 
z"/>
<path fill="#1784C2" opacity="1.000000" stroke="none" 
	d="
M286.306427,77.270844 
	C287.093384,72.598724 288.077332,68.203827 289.202911,63.468788 
	C291.806366,61.639259 294.268158,60.149868 297.434357,58.772652 
	C298.744049,59.221199 299.349335,59.557579 299.954651,59.893955 
	C293.500031,62.701485 291.356079,67.970985 292.846161,77.365509 
	C293.896301,83.986092 295.541382,85.355438 303.509216,86.241508 
	C299.370270,88.685013 296.649628,88.447433 290.551849,84.726288 
	C289.230652,83.128685 288.377197,81.955666 287.523743,80.782646 
	C287.183624,79.704453 286.843506,78.626259 286.306427,77.270844 
z"/>
<path fill="#1583C2" opacity="1.000000" stroke="none" 
	d="
M325.019958,60.047859 
	C318.540680,64.444695 316.174744,77.304985 321.310150,83.054863 
	C323.144012,85.108154 326.599640,85.713020 328.866608,86.769951 
	C323.857025,89.328598 317.238342,87.096191 314.186768,81.192177 
	C309.994659,73.081573 313.054321,63.567142 321.755981,59.191574 
	C322.444244,59.119034 322.672363,58.940582 322.900452,58.762131 
	C323.401886,58.578152 323.903351,58.394169 324.689514,58.547886 
	C324.989502,59.273010 325.004730,59.660435 325.019958,60.047859 
z"/>
<path fill="#1583C2" opacity="1.000000" stroke="none" 
	d="
M272.178711,77.050110 
	C271.691864,75.176422 271.205017,73.302734 270.432648,70.773941 
	C269.350372,69.774742 268.553589,69.430664 267.756836,69.086578 
	C268.868042,65.707634 269.979218,62.328686 271.480164,57.764584 
	C274.911743,66.766739 277.880981,74.556015 281.037872,82.673767 
	C281.817810,83.989159 282.410065,84.976074 283.285767,86.055191 
	C280.603180,86.586533 277.637085,87.025665 275.950806,87.275322 
	C274.640106,83.968117 273.684052,81.555748 272.397919,78.726547 
	C272.104797,77.889839 272.141754,77.469978 272.178711,77.050110 
z"/>
<path fill="#348EC2" opacity="1.000000" stroke="none" 
	d="
M325.400085,60.077690 
	C325.004730,59.660435 324.989502,59.273010 324.958862,58.595093 
	C328.258057,58.847710 331.572693,59.390820 334.892029,59.934700 
	C334.892029,62.242474 334.892029,64.484550 334.892029,65.383667 
	C332.094360,63.763702 328.937286,61.935616 325.400085,60.077690 
z"/>
<path fill="#348EC2" opacity="1.000000" stroke="none" 
	d="
M300.312561,59.980164 
	C299.349335,59.557579 298.744049,59.221199 297.788818,58.791885 
	C301.035858,58.939476 304.632843,59.180004 308.612854,59.446148 
	C308.612854,61.614883 308.612854,63.900494 308.612854,65.418991 
	C306.107910,63.730824 303.389191,61.898598 300.312561,59.980164 
z"/>
<path fill="#BED9EB" opacity="1.000000" stroke="none" 
	d="
M316.968536,95.143715 
	C317.902191,95.019699 318.908203,94.619118 319.751740,94.839691 
	C320.877167,95.133987 321.876373,95.910904 323.984955,97.051079 
	C324.448151,98.422508 324.005829,100.149734 320.038513,100.066643 
	C319.439240,100.113869 319.049438,100.088425 319.036865,99.751572 
	C318.451294,98.624146 317.878265,97.833565 317.255981,96.724564 
	C317.127350,95.985336 317.047943,95.564522 316.968536,95.143715 
z"/>
<path fill="#68A8CB" opacity="1.000000" stroke="none" 
	d="
M341.075592,102.013336 
	C340.044983,101.161743 338.200195,100.346352 338.160339,99.450699 
	C338.086914,97.799019 339.073120,96.100220 339.617798,94.421051 
	C340.545837,95.123161 341.473846,95.825272 341.825317,96.698479 
	C335.631927,98.397026 341.681274,100.317200 341.075592,102.013336 
z"/>
<path fill="#CCDFEE" opacity="1.000000" stroke="none" 
	d="
M341.393921,101.951187 
	C341.681274,100.317200 335.631927,98.397026 341.626465,96.940308 
	C341.906891,98.637032 341.809601,100.263031 341.393921,101.951187 
z"/>
<path fill="#D8E8F4" opacity="1.000000" stroke="none" 
	d="
M287.176758,81.000336 
	C288.377197,81.955666 289.230652,83.128685 290.240051,84.579559 
	C287.886353,84.938599 284.795319,85.589508 287.176758,81.000336 
z"/>
<path fill="#554E89" opacity="1.000000" stroke="none" 
	d="
M316.677856,95.199539 
	C317.047943,95.564522 317.127350,95.985336 317.116333,97.047798 
	C317.435181,98.733292 317.844421,99.777130 317.819153,100.909027 
	C317.090912,101.029770 316.797150,101.062454 316.503418,101.095146 
	C316.464661,99.148552 316.425903,97.201950 316.677856,95.199539 
z"/>
<path fill="#423777" opacity="1.000000" stroke="none" 
	d="
M316.651886,101.367416 
	C316.797150,101.062454 317.090912,101.029770 317.988312,100.830154 
	C318.815063,100.527809 318.967560,100.336205 319.049438,100.088425 
	C319.049438,100.088425 319.439240,100.113869 319.632019,100.082901 
	C320.033936,102.899956 318.636841,102.688316 316.651886,101.367416 
z"/>
<path fill="#D8E8F4" opacity="1.000000" stroke="none" 
	d="
M295.510376,95.695663 
	C296.039978,96.029800 296.356873,96.570343 296.673798,97.110886 
	C296.402313,97.232979 296.130829,97.355072 295.859344,97.477165 
	C295.672119,96.952133 295.484894,96.427101 295.510376,95.695663 
z"/>
<path fill="#D8E8F4" opacity="1.000000" stroke="none" 
	d="
M287.472839,95.459213 
	C287.520142,95.432915 287.425507,95.485512 287.472839,95.459213 
z"/>
<path fill="#348EC2" opacity="1.000000" stroke="none" 
	d="
M322.657471,58.761887 
	C322.672363,58.940582 322.444244,59.119034 322.104919,59.151127 
	C321.993683,59.004772 322.414490,58.761646 322.657471,58.761887 
z"/>
<path fill="#554E89" opacity="1.000000" stroke="none" 
	d="
M265.045624,101.615128 
	C263.335571,102.084221 261.901733,102.269791 260.079712,102.505592 
	C260.079712,98.612785 260.079712,95.112541 260.079712,91.619064 
	C265.849579,90.984299 266.957947,93.081757 265.045624,101.615128 
z"/>
<path fill="#BED9EB" opacity="1.000000" stroke="none" 
	d="
M271.761169,77.026428 
	C272.141754,77.469978 272.104797,77.889839 272.045471,78.627663 
	C269.376190,79.426407 266.729309,79.907196 263.017975,80.581337 
	C264.208313,76.961449 265.040710,74.430038 265.873108,71.898636 
	C266.349823,72.036186 266.826508,72.173737 267.303223,72.311287 
	C267.303223,73.659843 267.303223,75.008408 267.303223,76.621132 
	C268.783936,76.760986 270.063782,76.881866 271.761169,77.026428 
z"/>
<path fill="#D5E6F3" opacity="1.000000" stroke="none" 
	d="
M93.531616,202.268982 
	C92.242790,201.766129 91.168236,201.013092 90.093689,200.260071 
	C90.579697,199.776932 91.065697,199.293793 91.551704,198.810654 
	C92.283096,199.880035 93.014488,200.949417 93.531616,202.268982 
z"/>
<path fill="#D5E6F3" opacity="1.000000" stroke="none" 
	d="
M212.889679,110.847900 
	C213.704147,111.253578 214.279877,111.888252 214.855591,112.522919 
	C214.392029,112.840187 213.928467,113.157448 213.464905,113.474701 
	C213.193573,112.675430 212.922256,111.876160 212.889679,110.847900 
z"/>
<path fill="#D5E6F3" opacity="1.000000" stroke="none" 
	d="
M207.390823,114.404976 
	C206.520828,114.169357 205.893784,113.696022 205.266724,113.222672 
	C205.593185,112.902534 205.919647,112.582397 206.246109,112.262268 
	C206.708664,112.897263 207.171204,113.532257 207.390823,114.404976 
z"/>
<path fill="#BED9EB" opacity="1.000000" stroke="none" 
	d="
M267.501190,69.220383 
	C268.553589,69.430664 269.350372,69.774742 270.213440,70.490540 
	C269.268372,70.359566 268.256958,69.856873 267.501190,69.220383 
z"/>
<path fill="#BED9EB" opacity="1.000000" stroke="none" 
	d="
M262.714081,81.606941 
	C262.845795,81.439445 263.074554,81.414474 263.303284,81.389503 
	C263.139221,81.509491 262.975159,81.629478 262.714081,81.606941 
z"/>
<path fill="#1082C2" opacity="1.000000" stroke="none" 
	d="
M369.839783,59.292801 
	C369.735687,68.468536 369.298035,77.461212 368.845520,86.759766 
	C367.526062,86.759766 364.795197,86.759766 362.424194,86.759766 
	C362.424194,77.690300 362.424194,68.612160 362.424194,59.109741 
	C364.333679,59.109741 366.919952,59.109741 369.839783,59.292801 
z"/>
<path fill="#1082C2" opacity="1.000000" stroke="none" 
	d="
M394.006042,85.982452 
	C387.795868,77.127159 381.585663,68.271873 375.349854,59.380093 
	C380.261169,57.835670 383.584473,59.254742 385.991486,63.792122 
	C387.923340,67.433670 390.530182,70.717133 393.146851,74.821236 
	C393.639465,78.982796 393.822754,82.482628 394.006042,85.982452 
z"/>
<path fill="#CCDFEE" opacity="1.000000" stroke="none" 
	d="
M392.318848,93.828812 
	C393.992981,93.346115 395.304474,92.780693 397.160980,91.980270 
	C397.874054,95.397766 398.566925,98.718513 399.464325,103.019463 
	C394.654785,103.019463 389.667877,103.350166 384.763519,102.858292 
	C382.774170,102.658783 380.964478,100.667488 379.073059,99.491501 
	C379.846191,98.327408 380.619324,97.163322 381.392456,95.999237 
	C381.814850,96.142387 382.237213,96.285545 382.659607,96.428703 
	C382.659607,94.753242 382.659607,93.077782 382.659607,91.402328 
	C383.148224,91.328720 383.636841,91.255112 384.125488,91.181503 
	C384.562500,94.142334 384.999512,97.103172 385.436554,100.064011 
	C385.861206,100.196259 386.285889,100.328506 386.710571,100.460762 
	C387.445984,97.852013 388.181366,95.243263 389.078339,92.061394 
	C389.947968,92.570480 390.952087,93.158287 392.318848,93.828812 
M392.481628,96.099800 
	C392.284515,96.275604 392.087402,96.451408 391.890289,96.627220 
	C392.187866,96.702957 392.485443,96.778694 392.783020,96.854424 
	C392.824371,96.626930 392.865753,96.399445 392.481628,96.099800 
M394.509979,99.421844 
	C394.509979,99.421844 394.565125,99.515549 394.509979,99.421844 
M391.510223,100.416611 
	C391.510223,100.416611 391.561493,100.511169 391.510223,100.416611 
z"/>
<path fill="#423777" opacity="1.000000" stroke="none" 
	d="
M369.861572,96.619080 
	C366.382324,96.660088 364.547058,98.897072 362.828308,101.297226 
	C362.499908,98.028572 362.360413,95.053543 362.202332,91.681572 
	C365.748993,89.644562 368.214478,92.006607 369.861572,96.619080 
z"/>
<path fill="#68A8CB" opacity="1.000000" stroke="none" 
	d="
M394.105103,86.303780 
	C393.822754,82.482628 393.639465,78.982796 393.290833,75.126236 
	C393.631073,70.653755 394.136627,66.538010 394.767181,61.405014 
	C395.442139,62.857731 395.969543,63.469681 395.976196,64.087219 
	C396.051086,71.059708 396.087891,78.033684 395.982056,85.004944 
	C395.973724,85.553879 394.823608,86.085464 394.105103,86.303780 
z"/>
<path fill="#554E89" opacity="1.000000" stroke="none" 
	d="
M377.879883,101.544525 
	C377.073853,100.499451 376.186401,99.098213 375.208099,96.948128 
	C375.043365,95.463417 374.969513,94.727554 374.895630,93.991684 
	C375.330200,93.523834 375.764771,93.055984 376.803162,91.938110 
	C377.174957,95.393501 377.486694,98.290924 377.879883,101.544525 
z"/>
<path fill="#DCEAF6" opacity="1.000000" stroke="none" 
	d="
M360.986450,96.821945 
	C361.007904,98.082253 361.007904,99.052124 361.007904,100.021996 
	C360.435547,99.915985 359.863159,99.809975 359.290802,99.703957 
	C359.631836,98.472054 359.971191,97.239655 360.331512,96.013405 
	C360.336395,95.996788 360.645844,96.011826 360.741730,96.094711 
	C360.856354,96.193802 360.894043,96.381943 360.986450,96.821945 
z"/>
<path fill="#DCEAF6" opacity="1.000000" stroke="none" 
	d="
M361.657471,103.056946 
	C361.562134,103.959457 361.125488,104.923248 360.347687,105.947823 
	C360.443085,105.045135 360.879608,104.081680 361.657471,103.056946 
z"/>
<path fill="#E0EDF7" opacity="1.000000" stroke="none" 
	d="
M344.576080,173.045013 
	C344.198853,173.274368 343.824036,173.272186 343.451324,173.242966 
	C343.440948,173.242142 343.453278,172.951675 343.455017,172.796265 
	C343.829590,172.800735 344.204193,172.805206 344.576080,173.045013 
z"/>
<path fill="#BED9EB" opacity="1.000000" stroke="none" 
	d="
M374.614075,94.020538 
	C374.969513,94.727554 375.043365,95.463417 375.135162,96.571243 
	C374.945160,96.945618 374.737274,96.948044 374.288483,96.597427 
	C373.958923,95.556274 373.870270,94.868164 373.781647,94.180054 
	C373.965271,94.136490 374.148865,94.092934 374.614075,94.020538 
z"/>
<path fill="#554E89" opacity="1.000000" stroke="none" 
	d="
M373.527557,94.374908 
	C373.870270,94.868164 373.958923,95.556274 373.976685,96.591148 
	C373.739410,96.963829 373.573029,96.989738 373.154144,97.022461 
	C373.025543,96.209442 373.149506,95.389610 373.527557,94.374908 
z"/>
<path fill="#CCDFEE" opacity="1.000000" stroke="none" 
	d="
M378.550476,91.469528 
	C378.583893,91.526146 378.517029,91.412903 378.550476,91.469528 
z"/>
<path fill="#ECF5FC" opacity="1.000000" stroke="none" 
	d="
M499.629639,168.556244 
	C500.056763,168.667160 500.315674,168.938797 500.574615,169.210419 
	C500.462128,169.317490 500.257477,169.523819 500.250458,169.517319 
	C499.976196,169.262634 499.719971,168.988541 499.629639,168.556244 
z"/>
<path fill="#BED9EB" opacity="1.000000" stroke="none" 
	d="
M371.444122,98.409622 
	C371.526489,98.350510 371.558075,98.577225 371.558075,98.577225 
	C371.558075,98.577225 371.361755,98.468742 371.444122,98.409622 
z"/>
<path fill="#D0E2F0" opacity="1.000000" stroke="none" 
	d="
M207.726364,74.109940 
	C208.916061,62.260983 215.223328,54.749344 225.877563,53.265396 
	C221.404312,65.448112 217.113998,77.132553 212.610016,89.398956 
	C208.828049,84.632362 207.581253,79.824585 207.726364,74.109940 
z"/>
<path fill="#D0E2F0" opacity="1.000000" stroke="none" 
	d="
M222.884583,90.895294 
	C227.298599,87.970657 231.429794,85.273109 236.234711,82.135651 
	C237.639374,86.297371 238.779694,89.675858 239.896835,92.985718 
	C233.445541,99.015411 226.249344,99.727226 218.689682,94.836884 
	C220.054520,93.540970 221.328140,92.331680 222.884583,90.895294 
z"/>
<path fill="#CCDFEE" opacity="1.000000" stroke="none" 
	d="
M219.423874,83.516541 
	C222.256760,75.746643 225.089630,67.976746 228.359329,59.008808 
	C230.789688,65.853371 232.766815,71.421478 234.528046,76.381561 
	C229.693024,79.049820 225.268402,81.491600 220.341141,83.896454 
	C219.700302,83.745201 219.562088,83.630875 219.423874,83.516541 
z"/>
<path fill="#CCDFEE" opacity="1.000000" stroke="none" 
	d="
M220.032715,84.045746 
	C219.919144,84.425888 219.611389,84.619820 219.303635,84.813751 
	C219.247482,84.542099 219.191315,84.270447 219.279510,83.757675 
	C219.562088,83.630875 219.700302,83.745201 220.032715,84.045746 
z"/>
<path fill="#DCEAF6" opacity="1.000000" stroke="none" 
	d="
M319.036865,99.751572 
	C318.967560,100.336205 318.815063,100.527809 318.422852,100.742104 
	C317.844421,99.777130 317.435181,98.733292 317.165588,97.366219 
	C317.878265,97.833565 318.451294,98.624146 319.036865,99.751572 
z"/>
<path fill="#E1EEF7" opacity="1.000000" stroke="none" 
	d="
M392.694366,96.135880 
	C392.865753,96.399445 392.824371,96.626930 392.783020,96.854431 
	C392.485443,96.778694 392.187866,96.702957 391.890289,96.627213 
	C392.087402,96.451408 392.284515,96.275604 392.694366,96.135880 
z"/>
<path fill="#E1EEF7" opacity="1.000000" stroke="none" 
	d="
M394.537537,99.468697 
	C394.565125,99.515549 394.509979,99.421844 394.537537,99.468697 
z"/>
<path fill="#E1EEF7" opacity="1.000000" stroke="none" 
	d="
M391.535858,100.463890 
	C391.561493,100.511169 391.510223,100.416611 391.535858,100.463890 
z"/>
</svg>